<?xml version="1.0" encoding="UTF-8" standalone="no"?>
<!-- Created with Inkscape (http://www.inkscape.org/) -->

<svg
   width="39.401489mm"
   height="39.401489mm"
   viewBox="0 0 39.401489 39.401489"
   version="1.1"
   id="svg1"
   xml:space="preserve"
   xmlns="http://www.w3.org/2000/svg"
   xmlns:svg="http://www.w3.org/2000/svg"><defs
     id="defs1" /><g
     id="layer1"
     transform="translate(-85.299257,-128.79926)"><path
       style="fill:#060000;fill-opacity:1;stroke:none;stroke-width:0.286;stroke-dasharray:none"
       id="rect1"
       width="39.401485"
       height="39.401485"
       x="79.595139"
       y="112.282"
       d="m 85.797694,112.282 27.386866,0 a 5.812068,5.812068 45 0 1 5.81206,5.81207 v 28.12833 a 5.4610831,5.4610831 135 0 1 -5.46108,5.46108 H 85.056222 a 5.4610831,5.4610831 45 0 1 -5.461083,-5.46108 v -27.73785 a 6.2025556,6.2025556 135 0 1 6.202555,-6.20255 z"
       transform="translate(5.7041187,16.51726)" /><g
       style="fill:#ffffff;fill-opacity:1"
       id="g1"
       transform="matrix(0.05907953,0,0,0.05907953,89.901977,133.03177)"><g
         id="g3"
         style="fill:#ffffff;fill-opacity:1"><path
           d="m 336,200 h -48 v -48 h 32 c 17.672,0 32,-14.328 32,-32 0,-17.672 -14.328,-32 -32,-32 H 192 c -17.672,0 -32,14.328 -32,32 0,17.672 14.328,32 32,32 h 32 v 48 h -48 c -17.672,0 -32,13.828 -32,31.5 v 160 c 0,17.672 14.328,32.5 32,32.5 h 160 c 17.672,0 32,-14.828 32,-32.5 v -160 C 368,213.828 353.672,200 336,200 Z"
           id="path1"
           style="fill:#ffffff;fill-opacity:1" /><path
           d="m 480,215.75 c -17.672,0 -32,14.25 -32,32.25 h -48 v 128 h 48 c 0,17 14.328,31.75 32,31.75 17.672,0 32,-14.578 32,-32.25 v -32 -64 -32 c 0,-17.672 -14.328,-31.75 -32,-31.75 z"
           id="path2"
           style="fill:#ffffff;fill-opacity:1" /><path
           d="m 32,215.75 c -17.672,0 -32,14.078 -32,31.75 v 32 64 32 c 0,17.672 14.328,32.25 32,32.25 17.672,0 32,-14.75 32,-31.75 h 48 V 248 H 64 C 64,230 49.672,215.75 32,215.75 Z"
           id="path3"
           style="fill:#ffffff;fill-opacity:1" /></g></g></g></svg>
